# xmcd CD database file
#
# Track frame offsets:
#	150
#	18333
#	35903
#	61263
#	81746
#	121951
#	153087
#	171503
#
# Disc length: 2649 seconds
#
# Revision: 1
# Processed by: cddbd v1.5.1PL2 Copyright (c) Steve Scherf et al.
# Submitted via: CDex 1.51
#
DISCID=680a5708
DTITLE=Hemi-sync Michael Maricle - Breakthrough for peak-performance
DYEAR=2005
DGENRE=New Age
TTITLE0=Breakthrough 01
TTITLE1=Breakthrough 02
TTITLE2=Breakthrough 03
TTITLE3=Breakthrough 04
TTITLE4=Breakthrough 05
TTITLE5=Breakthrough 06
TTITLE6=Breakthrough 07
TTITLE7=Breakthrough 08
EXTD=YEAR: 2005
EXTT0=
EXTT1=
EXTT2=
EXTT3=
EXTT4=
EXTT5=
EXTT6=
EXTT7=
PLAYORDER=
